<mxfile host="app.diagrams.net" modified="2023-08-25T07:30:37.133Z" agent="Mozilla/5.0 (Windows NT 10.0; Win64; x64; rv:109.0) Gecko/20100101 Firefox/116.0" version="21.6.9" etag="xRpH2UZNNfm179h5L7Qa" type="github">
  <diagram name="Page-1" id="rCtqBqHNbF_GnGN54no3">
    <mxGraphModel>
      <root>
        <mxCell id="0" />
        <mxCell id="1" parent="0" />
      </root>
    </mxGraphModel>
  </diagram>
</mxfile>
